<svg width="24" height="24" viewBox="0 0 24 24" fill="none" xmlns="http://www.w3.org/2000/svg">
<g clip-path="url(#clip0_1_6826)">
<path fill-rule="evenodd" clip-rule="evenodd" d="M2 5.91329C2 3.75218 3.75194 2.00024 5.91305 2.00024H13.7392C15.9002 2.00024 17.6522 3.75218 17.6522 5.91329V6.42021C20.1198 6.8342 22 8.98026 22 11.5655V16.7829C22 19.6643 19.6642 22.0003 16.7826 22.0003H7.2174C4.33591 22.0003 2 19.6643 2 16.7829V7.65243V5.91329ZM15.0435 5.91329V6.34808H4.6087V5.91329C4.6087 5.19293 5.19268 4.60894 5.91305 4.60894H13.7392C14.4596 4.60894 15.0435 5.19293 15.0435 5.91329ZM4.6087 16.7829V8.95678H16.3479H16.7826C18.2234 8.95678 19.3913 10.1247 19.3913 11.5655V16.7829C19.3913 18.2237 18.2234 19.3916 16.7826 19.3916H7.2174C5.77665 19.3916 4.6087 18.2237 4.6087 16.7829ZM14.1739 12.8698C13.4535 12.8698 12.8696 13.4538 12.8696 14.1742C12.8696 14.8946 13.4535 15.4785 14.1739 15.4785H16.3479C17.0683 15.4785 17.6522 14.8946 17.6522 14.1742C17.6522 13.4538 17.0683 12.8698 16.3479 12.8698H14.1739Z" fill="white"/>
</g>
<defs>
<clipPath id="clip0_1_6826">
<rect width="21" height="20" fill="white" transform="translate(2 2)"/>
</clipPath>
</defs>
</svg>
